<svg aria-hidden="true" style="position:absolute;width:0;height:0" xmlns="http://www.w3.org/2000/svg" overflow="hidden">
  <defs>
    <symbol id="icon-header-icon" viewBox="0 0 32 32">
      <path fill="none" stroke="var(--color1, #fff)" stroke-width="1.3333" d="M10.116 6.725c0 1.873-1.518 3.391-3.391 3.391S3.334 8.598 3.334 6.725s1.518-3.391 3.391-3.391 3.391 1.518 3.391 3.391zM10.116 16c0 1.873-1.518 3.391-3.391 3.391S3.334 17.873 3.334 16s1.518-3.391 3.391-3.391 3.391 1.518 3.391 3.391zM10.116 25.275c0 1.873-1.518 3.391-3.391 3.391s-3.391-1.518-3.391-3.391 1.518-3.391 3.391-3.391 3.391 1.518 3.391 3.391zM19.391 6.725c0 1.873-1.518 3.391-3.391 3.391s-3.391-1.518-3.391-3.391S14.127 3.334 16 3.334s3.391 1.518 3.391 3.391zM19.391 16c0 1.873-1.518 3.391-3.391 3.391S12.609 17.873 12.609 16s1.518-3.391 3.391-3.391 3.391 1.518 3.391 3.391zM19.391 25.275c0 1.873-1.518 3.391-3.391 3.391s-3.391-1.518-3.391-3.391 1.518-3.391 3.391-3.391 3.391 1.518 3.391 3.391zM28.667 6.725c0 1.873-1.518 3.391-3.391 3.391s-3.391-1.518-3.391-3.391 1.518-3.391 3.391-3.391 3.391 1.518 3.391 3.391zM28.667 16c0 1.873-1.518 3.391-3.391 3.391S21.885 17.873 21.885 16s1.518-3.391 3.391-3.391 3.391 1.518 3.391 3.391zM28.667 25.275c0 1.873-1.518 3.391-3.391 3.391s-3.391-1.518-3.391-3.391 1.518-3.391 3.391-3.391 3.391 1.518 3.391 3.391z"/>
    </symbol>
    <symbol id="icon-header-icon-1" viewBox="0 0 32 32">
      <path fill="none" stroke="var(--color1, #fff)" stroke-linejoin="round" stroke-linecap="round" stroke-width="1.3333" d="M29.333 22.56v4c.002.371-.075.739-.223 1.079s-.367.646-.641.897-.597.442-.948.561-.725.163-1.094.13c-4.103-.446-8.044-1.848-11.507-4.093-3.222-2.047-5.953-4.779-8-8-2.253-3.478-3.656-7.439-4.093-11.56-.033-.369.01-.74.129-1.091s.308-.673.558-.947c.25-.273.553-.492.892-.641s.705-.227 1.075-.227h4c.647-.006 1.274.223 1.765.645s.811 1.008.902 1.649c.169 1.28.482 2.537.933 3.747.179.477.218.996.112 1.495s-.353.956-.712 1.319l-1.693 1.693c1.898 3.338 4.662 6.102 8 8l1.693-1.693c.363-.359.82-.606 1.319-.712s1.017-.068 1.494.112c1.21.451 2.467.765 3.747.933.648.091 1.239.418 1.662.917s.647 1.136.631 1.79z"/>
    </symbol>
    <symbol id="icon-header-icon-2" viewBox="0 0 32 32">
      <path fill="var(--color1, #fff)" opacity=".5" d="M15.957 2.667c.446.089.907.15 1.345.273 2.519.729 4.115 2.508 4.285 4.75 0 .041.016.082.024.164h3.548c.664 0 .988.245 1.053.797.219 2.045.429 4.096.64 6.141.259 2.433.518 4.873.778 7.306.13 1.193.3 2.385.365 3.578.065 1.227-.624 2.167-1.782 2.869-.915.552-1.961.777-3.087.777-4.051-.007-8.109 0-12.16 0-1.272 0-2.536.034-3.808-.014-1.604-.055-2.925-.613-3.856-1.745-.64-.777-.705-1.649-.591-2.563.235-1.888.413-3.783.608-5.677.194-1.861.397-3.714.591-5.575.178-1.649.348-3.299.518-4.948.008-.075.008-.157.024-.232.081-.477.397-.716.98-.722 1.086-.007 2.163 0 3.249 0h.373c.049-.811.235-1.561.664-2.256 1.021-1.615 2.6-2.569 4.739-2.869.089-.014.178-.034.267-.055h1.231zM9.08 9.346H6.155c-.008.055-.024.095-.024.143-.243 2.331-.494 4.668-.737 6.999-.316 3.04-.632 6.086-.956 9.126-.057.559.162 1.022.599 1.424.681.613 1.555.825 2.519.825 5.185.007 10.378.007 15.562 0 .583 0 1.142-.082 1.677-.3.851-.348 1.596-1.091 1.45-2.045-.089-.572-.13-1.159-.186-1.738-.211-2.045-.429-4.096-.64-6.141-.243-2.304-.486-4.614-.729-6.918-.049-.457-.105-.913-.154-1.363h-2.933v.252c0 .661.008 1.322-.008 1.976-.008.416-.397.722-.875.716-.462-.007-.834-.307-.859-.709-.008-.136 0-.279 0-.416v-1.82h-9.033v.17c0 .675.008 1.356 0 2.031-.008.436-.389.75-.875.743-.478 0-.843-.313-.859-.729-.008-.13 0-.259 0-.388-.016-.613-.016-1.22-.016-1.84zM19.854 7.84c-.113-1.424-.851-2.515-2.309-3.203-1.58-.743-3.176-.688-4.691.143-1.288.709-1.944 1.752-2.025 3.06h9.025z"/>
    </symbol>
  </defs>
</svg>
